<svg width="219" height="222" viewBox="0 0 219 222" fill="none" xmlns="http://www.w3.org/2000/svg">
<path fill-rule="evenodd" clip-rule="evenodd" d="M94.7912 67.4489C94.7912 64.0349 97.5646 61.2672 100.986 61.2672C124.173 61.2672 142.971 80.0255 142.971 103.165C142.971 106.579 140.197 109.347 136.776 109.347C133.355 109.347 130.582 106.579 130.582 103.165C130.582 86.8536 117.331 73.6306 100.986 73.6306C97.5646 73.6306 94.7912 70.863 94.7912 67.4489Z" stroke="white"/>
<path fill-rule="evenodd" clip-rule="evenodd" d="M155.412 96.9833C158.833 96.9833 161.607 99.7509 161.607 103.165C161.607 126.305 142.809 145.063 119.622 145.063C116.201 145.063 113.427 142.295 113.427 138.881C113.427 135.467 116.201 132.699 119.622 132.699C135.967 132.699 149.218 119.476 149.218 103.165C149.218 99.7509 151.991 96.9833 155.412 96.9833Z" stroke="white"/>
<path fill-rule="evenodd" clip-rule="evenodd" d="M125.816 157.789C125.816 161.203 123.043 163.971 119.622 163.971C96.4341 163.971 77.6368 145.212 77.6368 122.073C77.6368 118.659 80.4102 115.891 83.8313 115.891C87.2525 115.891 90.0259 118.659 90.0259 122.073C90.0259 138.384 103.276 151.607 119.622 151.607C123.043 151.607 125.816 154.375 125.816 157.789Z" stroke="white"/>
<path fill-rule="evenodd" clip-rule="evenodd" d="M65.0977 128.255C61.6765 128.255 58.9032 125.487 58.9032 122.073C58.9032 98.9333 77.7005 80.175 100.888 80.175C104.309 80.175 107.083 82.9427 107.083 86.3567C107.083 89.7708 104.309 92.5384 100.888 92.5384C84.5428 92.5384 71.2922 105.761 71.2922 122.073C71.2922 125.487 68.5188 128.255 65.0977 128.255Z" stroke="white"/>
<circle cx="110.255" cy="112.619" r="84.5795" stroke="#0DBD8B"/>
<path opacity="0.5" d="M129.889 103.557L219 103.557" stroke="white" stroke-dasharray="3 3"/>
<path opacity="0.5" d="M119.317 132.253L119.317 221.364" stroke="white" stroke-dasharray="3 3"/>
<path opacity="0.5" d="M101.193 2.36351L101.193 91.4741" stroke="white" stroke-dasharray="3 3"/>
<path opacity="0.5" d="M-0.000488281 122.436L89.1101 122.436" stroke="white" stroke-dasharray="3 3"/>
<path opacity="0.6" d="M-0.000488281 28.0394H219" stroke="white"/>
<path opacity="0.6" d="M-0.000488281 197.198L219 197.198" stroke="white"/>
<path opacity="0.6" d="M25.6754 0.853163L25.6754 221.364" stroke="white"/>
<path opacity="0.6" d="M194.834 2.36351L194.834 221.364" stroke="white"/>
<circle opacity="0.6" cx="83.8259" cy="122.087" r="6.44609" stroke="white"/>
<circle opacity="0.6" cx="100.9" cy="86.358" r="6.44609" stroke="white"/>
<circle opacity="0.6" cx="100.982" cy="67.4492" r="6.44609" stroke="white"/>
<circle opacity="0.6" cx="136.777" cy="103.15" r="6.44609" stroke="white"/>
<circle opacity="0.6" cx="155.414" cy="103.173" r="6.44609" stroke="white"/>
<circle opacity="0.6" cx="119.614" cy="138.879" r="6.44609" stroke="white"/>
<path opacity="0.6" d="M119.614 151.336C123.174 151.336 126.061 154.222 126.061 157.782C126.06 161.342 123.174 164.228 119.614 164.228C116.054 164.228 113.168 161.342 113.168 157.782C113.168 154.222 116.054 151.336 119.614 151.336Z" stroke="white"/>
<circle opacity="0.6" cx="65.0881" cy="122.087" r="6.44609" stroke="white"/>
</svg>
